<svg width="22" height="36" viewBox="0 0 22 36" fill="none" xmlns="http://www.w3.org/2000/svg">
<path d="M10.9994 2.93302C14.1251 6.9011 15.7937 11.7944 15.7332 16.8155V18.0141L16.7644 18.6416C18.0969 19.4482 19.0906 20.6993 19.5645 22.1669C19.1484 21.8605 18.7131 21.5803 18.2612 21.3278L15.5112 19.7838L15.017 22.9001C14.9742 23.1755 14.9168 23.4485 14.8451 23.718H7.13941C7.02483 23.3655 6.93173 23.0129 6.84579 22.6463L6.22275 19.8261L3.68759 21.2362C3.26405 21.473 2.85514 21.7344 2.46298 22.0188C2.94615 20.5682 3.91914 19.3242 5.22014 18.4935L6.20126 17.866V16.7521C6.21896 11.7513 7.90758 6.89523 11.0066 2.93302H10.9994ZM11.0066 0C10.8459 0.000390307 10.6907 0.0579856 10.5697 0.162162L10.5053 0.218566C6.37569 4.76564 4.08257 10.6454 4.05998 16.745C2.30757 17.8643 1.01041 19.5543 0.395169 21.5197C-0.220073 23.485 -0.114267 25.6007 0.6941 27.4971C1.54567 25.6455 2.96921 24.1058 4.76181 23.0975C4.94159 23.8642 5.18101 24.6161 5.47795 25.3467C5.51561 25.4871 5.59909 25.6114 5.71554 25.7006C5.83199 25.7898 5.97497 25.8388 6.12248 25.8402H16.0626C16.2631 25.8402 16.4636 25.6498 16.5639 25.3537C16.8537 24.6592 17.0557 23.9322 17.1655 23.1892C18.9615 24.1932 20.3862 25.7342 21.2332 27.5887C22.0903 25.7017 22.223 23.5727 21.6067 21.5967C20.9903 19.6206 19.6667 17.9319 17.8816 16.8437C17.9524 10.7082 15.6714 4.77179 11.4936 0.218566C11.4314 0.150085 11.3552 0.0952397 11.2701 0.0575871C11.185 0.0199344 11.0928 0.000314749 10.9994 0L11.0066 0Z" fill="#4EA8DE"/>
<path d="M10.9993 16.1598C10.4493 16.1598 9.91154 15.9995 9.45389 15.699C8.99625 15.3986 8.63919 14.9715 8.42772 14.4716C8.21625 13.9716 8.15984 13.4213 8.2656 12.8898C8.37136 12.3584 8.63456 11.8697 9.02202 11.4853C9.40947 11.1009 9.90384 10.838 10.4428 10.7298C10.9818 10.6216 11.5412 10.6729 12.0506 10.8773C12.56 11.0816 12.9966 11.4298 13.3053 11.8781C13.6139 12.3263 13.7809 12.8545 13.7852 13.396C13.7937 13.7469 13.732 14.0961 13.6034 14.4235C13.4749 14.751 13.2821 15.0503 13.036 15.3043C12.7899 15.5583 12.4954 15.7622 12.1693 15.9041C11.8432 16.0461 11.4919 16.1234 11.1354 16.1316C11.0903 16.1387 11.0444 16.1387 10.9993 16.1316V16.1598Z" fill="#4EA8DE"/>
<path d="M14.8737 27.5958C14.6945 27.5901 14.516 27.6198 14.3486 27.683C14.1812 27.7462 14.0283 27.8416 13.8989 27.9638C13.7695 28.086 13.6662 28.2323 13.595 28.3943C13.5238 28.5563 13.4862 28.7307 13.4844 28.9072V33.067C13.4844 33.4297 13.6307 33.7776 13.8913 34.0342C14.1518 34.2907 14.5052 34.4348 14.8737 34.4348C15.2422 34.4348 15.5955 34.2907 15.8561 34.0342C16.1166 33.7776 16.263 33.4297 16.263 33.067V28.9636C16.2687 28.7877 16.2389 28.6126 16.1751 28.4482C16.1114 28.2839 16.015 28.1337 15.8917 28.0064C15.7684 27.879 15.6206 27.7772 15.4569 27.7067C15.2931 27.6362 15.1168 27.5985 14.9382 27.5958H14.8737Z" fill="#5E60CE"/>
<path d="M7.13932 27.5957C6.95709 27.5863 6.77478 27.6129 6.60324 27.6742C6.4317 27.7355 6.27444 27.8302 6.14081 27.9525C6.00718 28.0749 5.89991 28.2224 5.82539 28.3864C5.75087 28.5504 5.71062 28.7275 5.70703 28.9071V33.067C5.70703 33.4297 5.85341 33.7776 6.11395 34.0341C6.3745 34.2906 6.72788 34.4348 7.09635 34.4348C7.46483 34.4348 7.81821 34.2906 8.07875 34.0341C8.3393 33.7776 8.48568 33.4297 8.48568 33.067V28.9635C8.4914 28.7877 8.46152 28.6125 8.39777 28.4482C8.33402 28.2838 8.23768 28.1336 8.11436 28.0063C7.99105 27.879 7.84323 27.7771 7.67951 27.7067C7.5158 27.6362 7.33947 27.5985 7.16081 27.5957H7.13932Z" fill="#5E60CE"/>
<path d="M10.8991 27.5958C10.7204 27.592 10.5427 27.623 10.3762 27.6869C10.2096 27.7507 10.0575 27.8463 9.92847 27.9681C9.79945 28.0899 9.69607 28.2355 9.62422 28.3966C9.55238 28.5577 9.51349 28.7312 9.50977 28.9072V34.6392C9.50977 35.002 9.65614 35.3499 9.91669 35.6064C10.1772 35.8629 10.5306 36.007 10.8991 36.007C11.2676 36.007 11.6209 35.8629 11.8815 35.6064C12.142 35.3499 12.2884 35.002 12.2884 34.6392V28.9988C12.2941 28.823 12.2643 28.6478 12.2005 28.4835C12.1368 28.3191 12.0404 28.1689 11.9171 28.0416C11.7938 27.9143 11.646 27.8124 11.4822 27.7419C11.3185 27.6714 11.1422 27.6337 10.9635 27.631L10.8991 27.5958Z" fill="#5E60CE"/>
</svg>
